<svg width="32" height="32" viewBox="0 0 32 32" fill="none" xmlns="http://www.w3.org/2000/svg"><path d="M26 26H6C5.46957 26 4 26 4 26C4 26 4 24.5304 4 24V10C4 9.46957 4 8 4 8C4 8 5.46957 8 6 8H9.99927L11.9993 5H19.9993L21.9993 8H26C26.5304 8 28 8 28 8C28 8 28 9.46957 28 10V24C28 24.5304 28 26 28 26C28 26 26.5304 26 26 26Z" stroke="#139859" stroke-width="2" stroke-linecap="round" stroke-linejoin="round"/><path d="M16 21C18.4853 21 20.5 18.9853 20.5 16.5C20.5 14.0147 18.4853 12 16 12C13.5147 12 11.5 14.0147 11.5 16.5C11.5 18.9853 13.5147 21 16 21Z" stroke="#139859" stroke-width="2" stroke-linecap="round" stroke-linejoin="round"/></svg>