<svg width="28" height="25" viewBox="0 0 28 25" fill="none" xmlns="http://www.w3.org/2000/svg"><path clip-rule="evenodd" d="M21.5167 5.47979V5.47979C21.0193 5.47979 20.5687 5.19312 20.3567 4.74512C19.974 3.93446 19.4873 2.89846 19.1993 2.33446C18.774 1.49579 18.0847 1.00779 17.13 1.00112C17.114 0.999789 10.8847 0.999789 10.8687 1.00112C9.91402 1.00779 9.22602 1.49579 8.79935 2.33446C8.51268 2.89846 8.02601 3.93446 7.64335 4.74512C7.43135 5.19312 6.97935 5.47979 6.48335 5.47979V5.47979C3.82202 5.47979 1.66602 7.63579 1.66602 10.2958V18.2105C1.66602 20.8691 3.82202 23.0265 6.48335 23.0265H21.5167C24.1767 23.0265 26.3327 20.8691 26.3327 18.2105V10.2958C26.3327 7.63579 24.1767 5.47979 21.5167 5.47979Z" stroke="#200E32" stroke-width="2" stroke-linecap="round" stroke-linejoin="round"/><path clip-rule="evenodd" d="M9.76185 13.7793C9.76052 16.1166 11.6685 18.0286 14.0019 18.0273C16.3312 18.0246 18.2339 16.1206 18.2379 13.7886C18.2419 11.4473 16.3405 9.53929 14.0045 9.53662C11.6552 9.53396 9.74319 11.474 9.76185 13.7793Z" stroke="#200E32" stroke-width="2" stroke-linecap="round" stroke-linejoin="round"/><path d="M20.5364 10.6601C20.4075 10.6469 20.2803 10.6133 20.1378 10.5559C19.9793 10.4855 19.8421 10.3959 19.7094 10.2611C19.471 10.0076 19.333 9.67603 19.333 9.33398C19.333 9.15229 19.3702 8.97221 19.4427 8.80908C19.5154 8.64381 19.6015 8.50439 19.7572 8.35274C19.8757 8.24958 19.997 8.16657 20.1629 8.09351C20.6547 7.89861 21.2398 8.01506 21.6055 8.38055C21.715 8.48852 21.8073 8.61881 21.8585 8.72868L21.8889 8.80659C21.9625 8.97221 21.9997 9.15229 21.9997 9.33398C21.9997 9.68296 21.8634 10.0057 21.6105 10.2744C21.3919 10.4944 21.1049 10.6297 20.7986 10.6601L20.6663 10.6667L20.5364 10.6601Z" fill="#200E32"/></svg>