<svg width="64" height="64" viewBox="0 0 64 64" fill="none" xmlns="http://www.w3.org/2000/svg"><path d="M22.7263 1.34032C22.7568 1.30982 23.1571 1.17902 23.6159 1.04962C24.5074 0.798118 24.799 0.755118 24.8018 0.875018C24.8027 0.916218 25.0037 1.80282 25.2483 2.84512C25.493 3.88742 25.6834 4.74622 25.6716 4.75362C25.6597 4.76092 25.2523 4.87182 24.7662 5.00012C24.1637 5.15902 23.8613 5.19912 23.8162 5.12612C23.6854 4.91442 22.6721 1.39462 22.7263 1.34032Z" fill="#15CC76"/><path d="M15.1 4.82659C15.1 4.77619 15.4938 4.50569 15.975 4.22549C16.4563 3.94539 16.8725 3.71329 16.9 3.70979C16.9603 3.70209 18.8 7.14739 18.8 7.26809C18.8 7.31459 18.439 7.56339 17.9978 7.82079L17.1956 8.28899L16.9638 7.91949C15.7938 6.05439 15.1 4.90309 15.1 4.82659Z" fill="#15CC76"/><path d="M8.55005 10.1104L9.29755 9.35521C9.70865 8.93981 10.0727 8.60001 10.1066 8.60001C10.1404 8.60001 10.7839 9.26151 11.5365 10.07L12.9048 11.5401L12.2352 12.2149L11.5655 12.8898L11.1078 12.495C10.856 12.2779 10.1775 11.6526 9.60005 11.1054L8.55005 10.1104Z" fill="#15CC76"/><path d="M3.70996 16.9385L4.22146 16.0192C4.50276 15.5137 4.77616 15.1 4.82886 15.1C4.88166 15.1 5.67936 15.573 6.60156 16.151L8.27826 17.202L7.81406 17.9984C7.55886 18.4364 7.31486 18.7959 7.27206 18.7974C7.22916 18.7988 6.41016 18.3812 5.45206 17.8692L3.70996 16.9385Z" fill="#15CC76"/><path d="M0.925029 24.1252C1.01183 23.8088 1.13353 23.3588 1.19533 23.125C1.25713 22.8912 1.35583 22.7 1.41463 22.7C1.54743 22.7 5.11813 23.7847 5.17603 23.8427C5.19913 23.8658 5.11353 24.2929 4.98573 24.7917C4.80643 25.492 4.71883 25.6885 4.60173 25.6538C4.51833 25.6291 3.64043 25.4236 2.65103 25.1971C1.66153 24.9706 0.832829 24.7662 0.809529 24.7428C0.786229 24.7195 0.838129 24.4416 0.925029 24.1252Z" fill="#15CC76"/><path d="M0 33.1036V31.9866V30.8696L1.0656 30.9348C1.6516 30.9707 2.563 31 3.091 31H4.0508L4.0396 31.9524C4.0335 32.4763 4.0108 32.9201 3.9892 32.9386C3.9677 32.9572 3.0613 33.0019 1.975 33.038L0 33.1036Z" fill="#15CC76"/><path d="M0.812152 39.2546C0.834152 39.2326 1.70665 39.012 2.75105 38.7645C3.79555 38.5169 4.67355 38.3111 4.70215 38.3072C4.81695 38.2914 5.22805 40.1209 5.12405 40.1851C5.06635 40.2208 4.20075 40.4937 3.20065 40.7916C1.88505 41.1834 1.36225 41.3007 1.30975 41.2156C1.20685 41.0492 0.763752 39.303 0.812152 39.2546Z" fill="#15CC76"/><path d="M3.76634 47.0246C3.81234 47.0074 4.59254 46.5913 5.50004 46.0998C6.40754 45.6084 7.19564 45.2048 7.25144 45.2031C7.30714 45.2014 7.56344 45.561 7.82084 46.0022L8.28904 46.8044L7.91954 47.0362C6.05604 48.2052 4.90314 48.9 4.82694 48.9C4.70094 48.9 3.66234 47.0634 3.76634 47.0246Z" fill="#15CC76"/><path d="M8.59998 53.8934C8.59998 53.8596 9.26148 53.2161 10.07 52.4635L11.5401 51.0952L12.2149 51.7648L12.8898 52.4344L12.495 52.8922C12.2779 53.144 11.6526 53.8225 11.1054 54.4L10.1104 55.45L9.35518 54.7025C8.93978 54.2914 8.59998 53.9273 8.59998 53.8934Z" fill="#15CC76"/><path d="M15.1 59.1711C15.1 59.1183 15.573 58.3206 16.151 57.3984L17.202 55.7217L17.9984 56.1859C18.4364 56.4411 18.7959 56.6851 18.7974 56.7279C18.7988 56.7708 18.3812 57.5898 17.8692 58.5479L16.9385 60.29L16.0192 59.7785C15.5137 59.4972 15.1 59.2238 15.1 59.1711Z" fill="#15CC76"/><path d="M22.7217 62.6549C22.6711 62.6043 22.865 61.9114 23.5695 59.625C23.7093 59.1712 23.8521 58.7999 23.8869 58.7997C23.9217 58.7995 24.3436 58.9 24.8244 59.023C25.498 59.1952 25.6885 59.2814 25.6539 59.3983C25.6292 59.4817 25.4237 60.3596 25.1972 61.349C24.9707 62.3385 24.7669 63.1665 24.7443 63.1891C24.6965 63.2369 22.8038 62.737 22.7217 62.6549Z" fill="#15CC76"/><path d="M30.9348 62.9344C30.9707 62.3484 31 61.437 31 60.909V59.9492L31.9524 59.9604C32.4763 59.9665 32.9201 59.9892 32.9386 60.0108C32.9572 60.0323 33.0019 60.9388 33.038 62.025L33.1036 64H31.9866H30.8696L30.9348 62.9344Z" fill="#15CC76"/><path d="M38.3284 59.2469C38.3402 59.2399 38.6874 59.1405 39.0999 59.0259C40.2182 58.7154 40.1536 58.6865 40.4363 59.625C40.573 60.0788 40.8319 60.937 41.0116 61.5322C41.2547 62.3378 41.3075 62.6335 41.2181 62.6887C41.0508 62.7921 39.3034 63.2369 39.255 63.1884C39.2082 63.1416 38.297 59.2655 38.3284 59.2469Z" fill="#15CC76"/><path d="M45.2 56.7335C45.2 56.6854 45.5488 56.44 45.975 56.188C46.5389 55.8546 46.7799 55.7598 46.8599 55.8399C47.0262 56.0064 48.8999 59.0676 48.8999 59.1729C48.8999 59.2601 47.0977 60.3382 47.0516 60.2786C46.9445 60.14 45.2 56.8 45.2 56.7335Z" fill="#15CC76"/><path d="M51.0952 52.4599L51.7648 51.7851L52.4345 51.1102L52.8922 51.505C53.144 51.7221 53.8225 52.3474 54.4 52.8946L55.45 53.8896L54.7025 54.6448C54.2914 55.0602 53.9273 55.4 53.8934 55.4C53.8596 55.4 53.2161 54.7385 52.4635 53.93L51.0952 52.4599Z" fill="#15CC76"/><path d="M55.7217 46.798L56.1859 46.0016C56.4411 45.5636 56.6851 45.2041 56.7279 45.2026C56.7708 45.2012 57.5898 45.6188 58.5479 46.1308L60.29 47.0615L59.7785 47.9808C59.4972 48.4863 59.2238 48.9 59.1711 48.9C59.1183 48.9 58.3206 48.427 57.3984 47.849L55.7217 46.798Z" fill="#15CC76"/><path d="M58.825 40.1584C58.8012 40.1347 58.8864 39.7071 59.0142 39.2083C59.1935 38.508 59.2811 38.3115 59.3982 38.3462C59.4816 38.3709 60.3595 38.5764 61.3489 38.8029C62.3384 39.0294 63.1664 39.2332 63.189 39.2558C63.2368 39.3036 62.7369 41.1963 62.6547 41.2785C62.6031 41.3302 58.9194 40.2528 58.825 40.1584Z" fill="#15CC76"/><path d="M59.9717 31.05L61.3108 30.9956C62.0474 30.9656 62.9538 30.9319 63.325 30.9206L64 30.9V32.0152V33.1304L62.9344 33.0652C62.3484 33.0293 61.437 33 60.909 33H59.9492L59.9604 32.025L59.9717 31.05Z" fill="#15CC76"/><path d="M58.8252 23.8415C58.8552 23.8114 59.6606 23.547 60.6149 23.2539C61.5692 22.9608 62.4256 22.7162 62.5179 22.7105C62.6378 22.703 62.729 22.8501 62.8368 23.225C63.088 24.0984 63.2278 24.7055 63.1873 24.7461C63.1411 24.7922 59.2654 25.7023 59.2464 25.6715C59.1666 25.5425 58.7845 23.8822 58.8252 23.8415Z" fill="#15CC76"/><path d="M56.1796 16.9021C56.4383 16.7424 57.19 16.2734 57.85 15.8599C58.51 15.4464 59.0983 15.1063 59.1572 15.104C59.2543 15.1004 60.3461 16.8961 60.2786 16.9483C60.1408 17.0548 56.8002 18.8 56.7341 18.8C56.6863 18.8 56.4362 18.4383 56.1783 17.9962L55.7092 17.1925L56.1796 16.9021Z" fill="#15CC76"/><path d="M51.0952 11.5401L52.4635 10.07C53.2161 9.26151 53.8596 8.60001 53.8934 8.60001C53.9273 8.60001 54.2914 8.93981 54.7025 9.35521L55.45 10.1104L54.4 11.1054C53.8225 11.6526 53.144 12.2779 52.8922 12.495L52.4345 12.8898L51.7648 12.2149L51.0952 11.5401Z" fill="#15CC76"/><path d="M45.2026 7.27319C45.2012 7.23099 45.6163 6.41269 46.125 5.45489L47.05 3.71329L47.8 4.12219C48.7966 4.66549 48.9 4.73269 48.9 4.83649C48.9 4.88509 48.427 5.67939 47.849 6.60159L46.798 8.27829L46.0016 7.81409C45.5636 7.55889 45.2041 7.31539 45.2026 7.27319Z" fill="#15CC76"/><path d="M38.3462 4.60169C38.4131 4.37549 39.2 0.925088 39.2 0.857888C39.2 0.826088 39.2563 0.800588 39.325 0.801188C39.4992 0.802988 41.2156 1.28229 41.2807 1.34739C41.3309 1.39759 40.2502 5.08309 40.1584 5.17489C40.1347 5.19869 39.7071 5.11349 39.2083 4.98569C38.508 4.80639 38.3115 4.71879 38.3462 4.60169Z" fill="#15CC76"/><path d="M31.0614 3.9892C31.0428 3.9677 30.9981 3.0613 30.962 1.975L30.8964 0H32.0134H33.1304L33.0652 1.0656C33.0293 1.6516 33 2.563 33 3.091V4.0508L32.0476 4.0396C31.5237 4.0335 31.0799 4.0108 31.0614 3.9892Z" fill="#15CC76"/></svg>