<svg width="160" height="40" viewBox="0 0 160 40" fill="none" xmlns="http://www.w3.org/2000/svg"><path d="M41.2372 24.4031C41.2372 21.1845 41.2372 18.3163 41.2372 15.3643C47.5318 15.3643 53.7054 15.3643 59.9628 15.3643C60.0124 15.7054 60.0961 15.9969 60.0961 16.2915C60.1116 19.9628 60.1674 23.6341 60.1054 27.3023C60.0155 32.7349 55.2155 37.7302 49.817 38.0961C49.2496 38.1333 48.6821 38.1333 48.1147 38.1364C44.1891 38.1395 40.2666 38.1395 36.5364 38.1395C30.3504 31.9566 24.2914 25.907 18.4031 20.0217C24.3473 13.9411 30.3349 7.82016 36.3504 1.66822C40.9147 1.66822 45.4666 1.47907 49.9938 1.72093C54.3969 1.95659 58.4186 5.54419 59.631 9.79535C59.724 10.124 59.724 10.4806 59.7891 10.9923C53.1876 10.9923 46.6976 10.9923 40.7659 10.9923C37.5163 14.2016 34.6263 17.0543 31.8418 19.8047C34.5953 22.5829 37.4201 25.4295 40.4992 28.5364C42.9457 28.5364 45.7829 28.5736 48.617 28.5178C49.7426 28.4961 50.4248 27.8202 50.4775 26.645C50.5085 25.9814 50.4837 25.3147 50.4837 24.4062C47.3767 24.4031 44.3721 24.4031 41.2372 24.4031Z" fill="#139859"/><path d="M32.3814 38.093C28.062 38.093 23.7426 38.093 19.5256 38.093C13.4046 31.9535 7.32711 25.8542 1.33331 19.8387C7.2775 13.8511 13.3147 7.77362 19.4604 1.58447C23.6806 1.58447 28.062 1.58447 32.8093 1.58447C26.6294 7.76122 20.6418 13.7488 14.6263 19.7674C20.6946 25.848 26.6294 31.7953 32.5643 37.7457C32.5023 37.8604 32.4434 37.9783 32.3814 38.093Z" fill="#107F4B"/><path d="M95.2884 17.0356C93.6357 17.0356 91.9861 17.0635 90.3333 17.0294C88.2 16.9829 87.3349 16.0992 87.3349 13.9907C87.3349 11.5628 87.3442 9.13795 87.3721 6.71004C87.3969 4.5488 88.1163 3.7302 90.2062 3.69609C93.5581 3.64338 96.9132 3.64338 100.268 3.69609C102.194 3.7271 103 4.56431 103.059 6.44648C103.136 8.924 103.192 11.4015 103.205 13.879C103.214 16.0093 102.234 16.986 100.085 17.0294C98.4884 17.0635 96.8884 17.0356 95.2884 17.0356ZM91.2512 13.7085C94.0419 13.7085 96.6279 13.7085 99.2636 13.7085C99.2636 11.2899 99.2636 9.04493 99.2636 6.67594C96.538 6.67594 93.9364 6.67594 91.2512 6.67594C91.2512 9.06973 91.2512 11.3271 91.2512 13.7085Z" fill="#fff"/><path d="M127.66 13.7736C130.343 13.7736 132.795 13.7736 135.437 13.7736C135.437 11.4294 135.437 9.14725 135.437 6.60461C131.691 6.60461 127.949 6.60461 124.057 6.60461C124.057 5.56896 124.057 4.78446 124.057 3.83562C124.557 3.78291 125.05 3.68368 125.543 3.68368C129.264 3.67128 132.984 3.66508 136.705 3.68058C138.873 3.68989 139.484 4.30384 139.499 6.42787C139.518 9.01392 139.536 11.6 139.536 14.186C139.536 16.2418 138.789 17.0263 136.767 17.0356C132.538 17.0542 128.309 17.0418 123.943 17.0418C123.943 14.462 123.943 12.0155 123.943 9.39841C125.136 9.39841 126.281 9.39841 127.66 9.39841C127.66 10.8217 127.66 12.2387 127.66 13.7736Z" fill="#fff"/><path d="M140.758 16.9581C143.236 12.3907 145.561 8.09919 147.908 3.77051C149.214 3.77051 150.433 3.77051 151.815 3.77051C154.132 8.08369 156.46 12.4186 158.885 16.9364C157.13 16.9364 155.617 16.9364 154.054 16.9364C153.753 16.4186 153.45 15.8945 153.112 15.3085C150.95 15.3085 148.798 15.3085 146.584 15.3085C146.268 15.8325 145.952 16.3535 145.589 16.955C144.11 16.9581 142.584 16.9581 140.758 16.9581ZM150.085 9.20617C149.939 9.19997 149.794 9.19686 149.648 9.19066C149.164 10.0899 148.684 10.9922 148.129 12.0248C149.391 12.0248 150.371 12.0248 151.586 12.0248C151.019 10.9581 150.553 10.0806 150.085 9.20617Z" fill="#fff"/><path d="M70.3023 16.8806C70.3023 12.4961 70.3023 8.26971 70.3023 3.8573C71.4775 3.8573 72.5566 3.8573 73.8651 3.8573C73.9643 5.47901 74.0604 7.0449 74.1597 8.68521C75.0062 8.68521 75.7628 8.68521 76.6124 8.68521C78.169 7.06351 79.7721 5.38909 81.3008 3.79529C82.969 3.79529 84.4263 3.79529 86.2186 3.79529C84.1131 6.09606 82.2186 8.16738 80.2682 10.3007C82.3705 12.524 84.3736 14.6418 86.5566 16.9519C84.6868 16.9519 83.1116 16.9519 81.738 16.9519C79.9612 15.2247 78.2992 13.6092 76.662 12.0185C75.8434 12.0185 75.0775 12.0185 74.1411 12.0185C74.1411 13.6465 74.1411 15.2185 74.1411 16.8806C72.7395 16.8806 71.5085 16.8806 70.3023 16.8806Z" fill="#fff"/><path d="M138.91 22.7752C138.91 27.2868 138.91 31.6496 138.91 36.1054C137.76 36.1054 136.65 36.1054 135.326 36.1054C135.326 32.6419 135.326 29.1752 135.326 25.5411C132.485 25.5411 129.853 25.5411 127.037 25.5411C127.037 29.1101 127.037 32.5861 127.037 36.1271C125.735 36.1271 124.612 36.1271 123.338 36.1271C123.338 31.7333 123.338 27.3364 123.338 22.7721C128.516 22.7752 133.583 22.7752 138.91 22.7752Z" fill="#fff"/><path d="M155.149 36.0837C155.149 32.5922 155.149 29.1535 155.149 25.5473C152.355 25.5473 149.71 25.5473 146.857 25.5473C146.857 29.0325 146.857 32.5085 146.857 36.093C145.546 36.093 144.433 36.093 143.171 36.093C143.171 31.7209 143.171 27.3178 143.171 22.7659C148.386 22.7659 153.456 22.7659 158.699 22.7659C158.699 27.2279 158.699 31.5969 158.699 36.0837C157.639 36.0837 156.532 36.0837 155.149 36.0837Z" fill="#fff"/><path d="M98.5597 28.2759C98.5597 27.293 98.5597 26.5147 98.5597 25.4883C94.6837 25.4883 90.8418 25.4883 86.8635 25.4883C86.8635 24.462 86.8635 23.6775 86.8635 22.7504C87.4 22.7038 87.8961 22.6201 88.3922 22.6201C92.2124 22.6108 96.0325 22.6015 99.8527 22.6201C101.927 22.6294 102.588 23.324 102.603 25.4356C102.609 26.3131 102.612 27.1907 102.615 28.0713C102.622 30.6728 101.964 31.3333 99.3131 31.3457C96.9907 31.3581 94.6682 31.3426 92.3457 31.355C91.7907 31.3581 91.2387 31.4232 90.5473 31.4697C90.5473 33.079 90.5473 34.555 90.5473 36.1178C89.2387 36.1178 88.0759 36.1178 86.786 36.1178C86.786 33.5721 86.786 31.0294 86.786 28.2821C90.6992 28.2759 94.5442 28.2759 98.5597 28.2759Z" fill="#fff"/><path d="M109.446 12.3534C109.446 14.0186 109.446 15.3984 109.446 16.9085C108.135 16.9085 106.938 16.9085 105.633 16.9085C105.633 14.4093 105.633 11.9627 105.633 9.23716C109.366 9.23716 112.991 9.23716 116.708 9.23716C116.708 8.25732 116.708 7.55654 116.708 6.55189C113.046 6.55189 109.425 6.55189 105.713 6.55189C105.713 5.50073 105.713 4.75344 105.713 3.84491C106.253 3.786 106.746 3.68678 107.239 3.68367C110.851 3.67127 114.467 3.66197 118.079 3.68367C120.057 3.69608 120.637 4.30383 120.674 6.29143C120.693 7.22166 120.705 8.15189 120.708 9.08212C120.718 11.2558 119.862 12.2325 117.695 12.3193C115.633 12.4031 113.564 12.3503 111.499 12.3565C110.895 12.3534 110.29 12.3534 109.446 12.3534Z" fill="#fff"/><path d="M111.688 36.1271C110.169 36.1271 108.798 36.1271 107.202 36.1271C108.302 34.5581 109.295 33.1411 110.333 31.662C108.389 28.707 106.476 25.8046 104.439 22.707C105.936 22.707 107.152 22.707 108.529 22.707C109.812 24.5209 111.136 26.3938 112.597 28.4589C114.091 26.4279 115.456 24.5767 116.82 22.7225C118.153 22.7225 119.415 22.7225 121.031 22.7225C117.784 27.3736 114.708 31.7891 111.688 36.1271Z" fill="#fff"/><path d="M70.3023 22.738C75.0062 22.738 79.5147 22.738 84.169 22.738C84.169 23.5721 84.169 24.3535 84.169 25.3767C80.8201 25.3767 77.4992 25.3767 74.0294 25.3767C74.0294 29.0853 74.0294 32.5581 74.0294 36.1178C72.7147 36.1178 71.5612 36.1178 70.3023 36.1178C70.3023 31.7023 70.3023 27.3426 70.3023 22.738Z" fill="#fff"/></svg>