<svg width="200" height="200" viewBox="0 0 200 200" fill="none" xmlns="http://www.w3.org/2000/svg"><g clip-path="url(#clip0)" fill="#139859"><path d="M196.509 150.609C196.584 150.594 196.658 150.574 196.732 150.555C196.795 150.539 196.859 150.525 196.92 150.506C196.993 150.484 197.063 150.457 197.134 150.432C197.196 150.409 197.259 150.389 197.321 150.363C197.388 150.335 197.452 150.303 197.517 150.272C197.58 150.242 197.644 150.214 197.706 150.181C197.768 150.148 197.826 150.11 197.886 150.074C197.948 150.037 198.011 150.003 198.071 149.962C198.135 149.919 198.195 149.872 198.256 149.826C198.308 149.787 198.362 149.75 198.413 149.709C198.506 149.632 198.595 149.55 198.682 149.465C198.698 149.45 198.714 149.438 198.73 149.422C198.746 149.406 198.76 149.388 198.776 149.371C198.859 149.285 198.94 149.198 199.016 149.105C199.061 149.051 199.1 148.994 199.141 148.938C199.184 148.88 199.229 148.824 199.269 148.764C199.312 148.7 199.349 148.633 199.389 148.567C199.422 148.512 199.457 148.457 199.488 148.4C199.523 148.334 199.554 148.265 199.585 148.197C199.614 148.137 199.644 148.077 199.67 148.016C199.698 147.949 199.72 147.881 199.744 147.814C199.768 147.748 199.793 147.682 199.813 147.615C199.834 147.547 199.849 147.478 199.866 147.408C199.883 147.34 199.903 147.273 199.916 147.204C199.932 147.123 199.942 147.04 199.954 146.958C199.962 146.901 199.973 146.843 199.979 146.785C199.993 146.641 200.001 146.497 200.001 146.352V53.6442C200.001 51.2483 198.059 49.3069 195.663 49.3069H59.037C58.9988 49.3069 58.9618 49.3115 58.9236 49.3127C58.8409 49.315 58.7588 49.3184 58.6767 49.3254C58.6113 49.3306 58.5466 49.3381 58.4818 49.3468C58.4078 49.356 58.3343 49.367 58.2609 49.3803C58.1921 49.3925 58.1238 49.4069 58.0562 49.4225C57.9873 49.4387 57.9185 49.4561 57.8503 49.4758C57.7826 49.4948 57.7161 49.5157 57.6502 49.5376C57.5825 49.5608 57.5149 49.5851 57.4484 49.6117C57.3853 49.6365 57.3234 49.662 57.2621 49.6897C57.1939 49.7204 57.1262 49.7533 57.0591 49.7875C57.0019 49.817 56.9458 49.847 56.8903 49.8788C56.8232 49.917 56.7573 49.9575 56.6919 49.9991C56.6381 50.0338 56.5855 50.0697 56.5335 50.1061C56.4722 50.1495 56.4114 50.1946 56.3519 50.242C56.2975 50.2854 56.2443 50.3299 56.1917 50.3756C56.1396 50.4213 56.0882 50.467 56.0379 50.5156C55.9806 50.5705 55.9257 50.6277 55.8713 50.6856C55.8441 50.7145 55.8152 50.7399 55.7892 50.7694C55.7736 50.7868 55.7614 50.8059 55.7464 50.8232C55.692 50.8863 55.6411 50.9522 55.5902 51.0187C55.5532 51.0673 55.5151 51.1158 55.4804 51.1656C55.4352 51.2303 55.3936 51.2969 55.352 51.3639C55.3178 51.4189 55.2826 51.4732 55.2513 51.5293C55.2149 51.5941 55.1831 51.6606 55.1501 51.7271C55.1201 51.7878 55.0888 51.8486 55.0617 51.9104C55.0333 51.9758 55.0085 52.0435 54.9836 52.11C54.9587 52.1753 54.9333 52.2401 54.9119 52.306C54.8905 52.3725 54.8731 52.4402 54.8546 52.5078C54.8361 52.5772 54.8165 52.6461 54.8008 52.716C54.7864 52.7814 54.7765 52.8479 54.765 52.9138C54.7523 52.989 54.7395 53.0642 54.7303 53.1394C54.7228 53.2018 54.7193 53.2654 54.7147 53.329C54.7089 53.41 54.7037 53.491 54.7025 53.5725C54.7019 53.5962 54.6991 53.6194 54.6991 53.6431V80.3912C54.6991 82.7871 56.6405 84.7285 59.0364 84.7285C61.4323 84.7285 63.3737 82.7871 63.3737 80.3912V63.276L101.936 97.4178C101.735 97.5595 101.541 97.7162 101.361 97.8961L63.3732 135.884V107.38C63.3732 104.984 61.4318 103.042 59.0358 103.042C56.6399 103.042 54.6985 104.984 54.6985 107.38V112.679H32.2889C29.8929 112.679 27.9515 114.621 27.9515 117.017C27.9515 119.413 29.8929 121.354 32.2889 121.354H54.6985V146.355C54.6985 148.751 56.6399 150.693 59.0358 150.693H195.662C195.805 150.693 195.948 150.685 196.09 150.671C196.157 150.665 196.221 150.652 196.286 150.643C196.361 150.632 196.435 150.624 196.509 150.609ZM191.325 135.884L153.337 97.8967C153.313 97.8724 153.287 97.8521 153.262 97.829L181.821 73.5995C183.647 72.0496 183.871 69.313 182.322 67.4861C180.773 65.6604 178.036 65.4349 176.208 66.9853L127.41 108.387L70.4783 57.9821H191.325V135.884V135.884ZM107.495 104.031C107.805 103.722 108.056 103.377 108.252 103.011L124.474 117.373C125.294 118.099 126.321 118.463 127.35 118.463C128.348 118.463 129.345 118.12 130.156 117.433L146.688 103.407C146.839 103.627 147.008 103.837 147.203 104.031L185.191 142.019H69.5079L107.495 104.031Z"/><path d="M4.33734 98.704H77.5904C79.9864 98.704 81.9278 96.7626 81.9278 94.3666C81.9278 91.9707 79.9864 90.0293 77.5904 90.0293H4.33734C1.94139 90.0293 0 91.9707 0 94.3666C0 96.7626 1.94139 98.704 4.33734 98.704Z"/><path d="M11.9277 74.8019H44.8192C47.2151 74.8019 49.1565 72.8605 49.1565 70.4645C49.1565 68.0686 47.2151 66.1272 44.8192 66.1272H11.9277C9.53173 66.1272 7.59033 68.0686 7.59033 70.4645C7.59033 72.8605 9.53173 74.8019 11.9277 74.8019Z"/><path d="M36.1445 130.993H4.33734C1.94139 130.993 0 132.935 0 135.331C0 137.727 1.94139 139.668 4.33734 139.668H36.1445C38.5405 139.668 40.4818 137.727 40.4818 135.331C40.4818 132.935 38.5405 130.993 36.1445 130.993Z"/></g><defs><clipPath id="clip0"><path fill="#fff" d="M0 0H200V200H0z"/></clipPath></defs></svg>