<svg width="17" height="17" viewBox="0 0 17 17" fill="none" xmlns="http://www.w3.org/2000/svg"><path d="M7.97867 16.5H7.25867C5.13917 16.3121 3.18561 15.2754 1.84188 13.6256C0.485145 11.9782 -0.1643 9.86078 0.0354847 7.73602C0.350117 3.88326 3.40419 0.822761 7.25627 0.500014C7.57142 0.498369 7.86851 0.646915 8.05627 0.900027C8.23181 1.17934 8.19906 1.54152 7.97627 1.78483C7.21092 2.82447 6.89398 4.12739 7.09627 5.40242C7.2644 6.6735 7.96473 7.81327 9.02267 8.53761C10.7033 9.8244 13.038 9.8244 14.7187 8.53761C14.8716 8.43157 15.0526 8.37312 15.2387 8.36961C15.3649 8.36983 15.4893 8.39969 15.6019 8.45681C15.8554 8.64601 16.0039 8.94447 16.0019 9.26081C15.8426 11.4059 14.7959 13.3873 13.1139 14.728C11.6372 15.8554 9.8364 16.4768 7.97867 16.5ZM5.73227 2.34882C3.37918 3.18132 1.74175 5.32741 1.56028 7.81681C1.39994 9.5139 1.91924 11.2053 3.00428 12.52C4.08135 13.8353 5.64289 14.6612 7.33627 14.8112C7.54587 14.8312 7.75867 14.8416 7.96827 14.8416C9.44368 14.8534 10.873 14.3282 11.9899 13.364C12.8571 12.6344 13.5205 11.6926 13.9155 10.6304C13.2197 10.8817 12.4856 11.01 11.7459 11.0096C10.3614 11.0093 9.01317 10.5667 7.89787 9.74641C6.55049 8.72205 5.63504 7.23073 5.33148 5.56562C5.25925 4.47762 5.39528 3.38583 5.73227 2.34882Z" fill="#1F2226" fill-opacity=".4"/></svg>