<svg width="81" height="80" viewBox="0 0 81 80" fill="none" xmlns="http://www.w3.org/2000/svg"><path d="M0.5 40C0.5 17.9086 18.4086 0 40.5 0C62.5914 0 80.5 17.9086 80.5 40C80.5 62.0914 62.5914 80 40.5 80C18.4086 80 0.5 62.0914 0.5 40Z" fill="#fff"/><path d="M48 20.5H33V28H48V20.5Z" stroke="#1F2226" stroke-width="2.5" stroke-linecap="round" stroke-linejoin="round"/><path d="M48 23.5H54C54.3978 23.5 54.7794 23.658 55.0607 23.9393C55.342 24.2206 55.5 24.6022 55.5 25V56.5C55.5 56.8978 55.342 57.2794 55.0607 57.5607C54.7794 57.842 54.3978 58 54 58H27C26.6022 58 26.2206 57.842 25.9393 57.5607C25.658 57.2794 25.5 56.8978 25.5 56.5V25C25.5 24.6022 25.658 24.2206 25.9393 23.9393C26.2206 23.658 26.6022 23.5 27 23.5H33" stroke="#1F2226" stroke-width="2.5" stroke-linecap="round" stroke-linejoin="round"/><path d="M34.5 44.5H46.5" stroke="#1F2226" stroke-width="2.5" stroke-linecap="round" stroke-linejoin="round"/><path d="M34.5 38.5H46.5" stroke="#1F2226" stroke-width="2.5" stroke-linecap="round" stroke-linejoin="round"/></svg>