<svg width="17" height="17" viewBox="0 0 17 17" fill="none" xmlns="http://www.w3.org/2000/svg"><path d="M9.3 16.5H7.7V14.1H9.3V16.5ZM13.5912 14.7224L11.8944 13.0256L13.0256 11.8944L14.7232 13.592L13.5928 14.7224H13.5912ZM3.4088 14.7224L2.2768 13.5912L3.9728 11.8936L5.1048 13.0248L3.4088 14.7216V14.7224ZM8.5 12.5056C6.28798 12.5047 4.49541 10.711 4.496 8.49893C4.49659 6.28691 6.29011 4.49411 8.50213 4.4944C10.7142 4.49469 12.5072 6.28798 12.5072 8.5C12.505 10.7119 10.7119 12.5043 8.5 12.5056ZM8.5 6.0944C7.17163 6.09528 6.09541 7.1727 6.096 8.50107C6.09659 9.82943 7.17377 10.9059 8.50213 10.9056C9.8305 10.9053 10.9072 9.82837 10.9072 8.5C10.9059 7.17135 9.82865 6.09484 8.5 6.0944ZM16.5 9.3H14.1V7.7H16.5V9.3ZM2.9 9.3H0.5V7.7H2.9V9.3ZM13.0248 5.1064L11.8944 3.9744L13.5912 2.2768L14.7232 3.4088L13.0256 5.1056L13.0248 5.1064ZM3.9744 5.1064L2.2784 3.4096L3.4104 2.2784L5.1064 3.976L3.9752 5.1056L3.9744 5.1064ZM9.3 2.9H7.7V0.5H9.3V2.9Z" fill="#fff" fill-opacity=".4"/></svg>