<svg width="64" height="64" viewBox="0 0 64 64" fill="none" xmlns="http://www.w3.org/2000/svg"><circle cx="32" cy="32" r="32" fill="#11C247"/><path d="M42.2405 21.8376C39.5724 19.091 35.8841 17.6 32.1173 17.6C24.113 17.6 17.6781 24.1133 17.7566 32.0392C17.7566 34.5504 18.4628 36.9831 19.6399 39.1804L17.5996 46.6354L25.2116 44.6735C27.3304 45.8507 29.6846 46.4 32.0388 46.4C39.9647 46.4 46.3996 39.8866 46.3996 31.9607C46.3996 28.1155 44.9086 24.5057 42.2405 21.8376ZM32.1173 43.9673C29.9985 43.9673 27.8797 43.418 26.0748 42.3193L25.604 42.0839L21.0525 43.261L22.2296 38.788L21.9157 38.3171C18.4628 32.7455 20.1108 25.3689 25.7609 21.9161C31.4111 18.4632 38.7091 20.1111 42.162 25.7613C45.6149 31.4114 43.9669 38.7095 38.3168 42.1624C36.5119 43.3395 34.3146 43.9673 32.1173 43.9673ZM39.023 35.2566L38.1598 34.8643C38.1598 34.8643 36.9042 34.315 36.1195 33.9226C36.041 33.9226 35.9626 33.8441 35.8841 33.8441C35.6487 33.8441 35.4917 33.9226 35.3348 34.0011C35.3348 34.0011 35.2563 34.0795 34.1576 35.3351C34.0792 35.4921 33.9222 35.5705 33.7653 35.5705H33.6868C33.6083 35.5705 33.4514 35.4921 33.3729 35.4136L32.9805 35.2566C32.1173 34.8643 31.3326 34.3934 30.7048 33.7656C30.5478 33.6087 30.3124 33.4517 30.1555 33.2948C29.6061 32.7455 29.0568 32.1177 28.6645 31.4114L28.586 31.2545C28.5075 31.176 28.5075 31.0975 28.429 30.9406C28.429 30.7836 28.429 30.6267 28.5075 30.5482C28.5075 30.5482 28.8214 30.1558 29.0568 29.9204C29.2138 29.7635 29.2923 29.528 29.4492 29.3711C29.6061 29.1357 29.6846 28.8218 29.6061 28.5864C29.5277 28.194 28.586 26.0752 28.3506 25.6043C28.1936 25.3689 28.0367 25.2904 27.8012 25.212H27.5658C27.4089 25.212 27.1735 25.212 26.938 25.212C26.7811 25.212 26.6241 25.2904 26.4672 25.2904L26.3887 25.3689C26.2318 25.4474 26.0748 25.6043 25.9179 25.6828C25.7609 25.8398 25.6824 25.9967 25.5255 26.1537C24.9762 26.8599 24.6623 27.7231 24.6623 28.5864C24.6623 29.2141 24.8192 29.8419 25.0547 30.3913L25.1331 30.6267C25.8394 32.1177 26.7811 33.4517 28.0367 34.6289L28.3506 34.9428C28.586 35.1782 28.8214 35.3351 28.9784 35.5705C30.6263 36.9831 32.5097 38.0032 34.6285 38.5526C34.8639 38.631 35.1778 38.631 35.4132 38.7095C35.6487 38.7095 35.9626 38.7095 36.198 38.7095C36.5903 38.7095 37.0612 38.5526 37.3751 38.3956C37.6105 38.2387 37.7675 38.2387 37.9244 38.0817L38.0814 37.9248C38.2383 37.7678 38.3953 37.6893 38.5522 37.5324C38.7091 37.3755 38.8661 37.2185 38.9446 37.0616C39.1015 36.7477 39.18 36.3553 39.2585 35.9629C39.2585 35.806 39.2585 35.5705 39.2585 35.4136C39.2585 35.4136 39.18 35.3351 39.023 35.2566Z" fill="#fff"/></svg>